<svg width="162" height="89" viewBox="0 0 162 89" fill="none" xmlns="http://www.w3.org/2000/svg">
<rect y="44" width="162" height="41" fill="#3F51B5"/>
<path d="M36.66 78H31.728V52.8H36.66V62.952H42.42V52.8H47.352V78H42.42V67.56H36.66V78ZM50.8178 78V52.8H63.7418V57.12H55.7498V63.132H62.8778V67.308H55.7498V73.824H63.8858V78H50.8178ZM77.4013 78L76.6453 74.004H70.9573L70.2013 78H65.3053L70.1653 52.8H77.6173L82.2253 78H77.4013ZM73.7293 57.48L72.3253 65.868L71.5333 70.152H76.0333L75.2053 65.868L73.8013 57.48H73.7293ZM84.3218 78V52.8H89.2538V73.824H96.7418V78H84.3218ZM100.378 57.12H94.942V52.8H110.71V57.12H105.274V78H100.378V57.12ZM117.73 78H112.798V52.8H117.73V62.952H123.49V52.8H128.422V78H123.49V67.56H117.73V78Z" fill="white"/>
<path d="M10.908 27.48H10.764H10.908L12.816 19.596L14.364 13.8H18.864L20.484 39H15.768L15.084 25.248H14.904L12.312 35.4H9.36L6.768 25.248H6.588L5.904 39H1.188L2.808 13.8H7.308L8.856 19.596L10.764 27.48H10.908ZM23.3843 39V13.8H36.3083V18.12H28.3163V24.132H35.4443V28.308H28.3163V34.824H36.4523V39H23.3843ZM44.1357 34.824H47.3757C48.0477 33.984 48.5757 32.76 48.9597 31.152C49.3677 29.544 49.5717 27.948 49.5717 26.364C49.5717 22.596 48.8637 19.848 47.4477 18.12H44.1357V34.824ZM39.2397 39V13.8H49.6797C53.0877 16.824 54.7917 20.928 54.7917 26.112C54.7917 31.272 53.1957 35.568 50.0037 39H39.2397ZM70.3409 34.824H76.6769V39H67.5329C65.9489 37.512 64.7489 35.628 63.9329 33.348C63.1169 31.068 62.7089 28.728 62.7089 26.328C62.7089 23.904 63.1649 21.576 64.0769 19.344C64.9889 17.112 66.3449 15.264 68.1449 13.8H76.6769V18.12H70.3409C69.6929 18.864 69.1289 20.064 68.6489 21.72C68.1929 23.376 67.9649 24.96 67.9649 26.472C67.9649 27.984 68.1929 29.568 68.6489 31.224C69.1289 32.88 69.6929 34.08 70.3409 34.824ZM79.3178 39V13.8H92.2418V18.12H84.2498V24.132H91.3778V28.308H84.2498V34.824H92.3858V39H79.3178ZM106.405 39L99.6733 25.068L99.4933 25.14L99.7093 29.388V39H95.1733V13.8H98.8093L105.433 28.272L105.613 28.2L105.217 23.772V13.8H109.753V39H106.405ZM117.276 18.12H111.84V13.8H127.608V18.12H122.172V39H117.276V18.12ZM129.697 39V13.8H142.621V18.12H134.629V24.132H141.757V28.308H134.629V34.824H142.765V39H129.697ZM145.552 13.8H155.128C156.64 14.304 157.924 15.24 158.98 16.608C160.06 17.952 160.6 19.608 160.6 21.576C160.6 24.792 159.328 27.156 156.784 28.668L160.42 39H155.38L152.32 29.82H150.412V39H145.552V13.8ZM150.412 18.12V25.788H153.508C153.916 25.692 154.36 25.284 154.84 24.564C155.344 23.82 155.596 22.956 155.596 21.972C155.596 20.988 155.38 20.124 154.948 19.38C154.54 18.636 154.132 18.216 153.724 18.12H150.412Z" fill="#3F51B5"/>
</svg>
