<svg width="24" height="24" viewBox="0 0 24 24" fill="white" xmlns="http://www.w3.org/2000/svg">
<path fill-rule="evenodd" clip-rule="evenodd" d="M5.81141 1.34915C4.62778 1.34915 3.49261 1.81923 2.65549 2.65602C1.81838 3.49281 1.34787 4.62781 1.34741 5.81144V17.7154C1.34741 18.8994 1.81772 20.0348 2.65489 20.872C3.49205 21.7091 4.62749 22.1794 5.81141 22.1794H17.7154C18.899 22.179 20.034 21.7085 20.8708 20.8714C21.7076 20.0342 22.1777 18.8991 22.1777 17.7154V5.81144C22.1772 4.62811 21.707 3.49337 20.8702 2.65663C20.0335 1.81988 18.8987 1.34961 17.7154 1.34915H5.81141ZM18.9994 5.81829C18.9994 6.15929 18.864 6.48631 18.6228 6.72743C18.3817 6.96855 18.0547 7.10401 17.7137 7.10401C17.3727 7.10401 17.0457 6.96855 16.8046 6.72743C16.5634 6.48631 16.428 6.15929 16.428 5.81829C16.428 5.4773 16.5634 5.15028 16.8046 4.90916C17.0457 4.66804 17.3727 4.53258 17.7137 4.53258C18.0547 4.53258 18.3817 4.66804 18.6228 4.90916C18.864 5.15028 18.9994 5.4773 18.9994 5.81829ZM11.7651 8.19772C10.8194 8.19772 9.91249 8.57339 9.24379 9.2421C8.57509 9.9108 8.19941 10.8178 8.19941 11.7634C8.19941 12.7091 8.57509 13.6161 9.24379 14.2848C9.91249 14.9535 10.8194 15.3292 11.7651 15.3292C12.7108 15.3292 13.6178 14.9535 14.2865 14.2848C14.9552 13.6161 15.3308 12.7091 15.3308 11.7634C15.3308 10.8178 14.9552 9.9108 14.2865 9.2421C13.6178 8.57339 12.7108 8.19772 11.7651 8.19772ZM6.48341 11.7634C6.48341 10.3631 7.0397 9.02011 8.02989 8.02991C9.02008 7.03972 10.3631 6.48344 11.7634 6.48344C13.1638 6.48344 14.5067 7.03972 15.4969 8.02991C16.4871 9.02011 17.0434 10.3631 17.0434 11.7634C17.0434 13.1638 16.4871 14.5068 15.4969 15.497C14.5067 16.4872 13.1638 17.0434 11.7634 17.0434C10.3631 17.0434 9.02008 16.4872 8.02989 15.497C7.0397 14.5068 6.48341 13.1638 6.48341 11.7634Z"/>
</svg>
