<svg width="24" height="24" viewBox="0 0 24 24" fill="white" xmlns="http://www.w3.org/2000/svg">
<path fill-rule="evenodd" clip-rule="evenodd" d="M14.5286 1.99371C16.7606 1.41942 19.4538 2.21142 21.0943 3.95828H22.9338C23.0787 3.95841 23.2213 3.99531 23.3481 4.06553C23.475 4.13574 23.5819 4.23698 23.659 4.35977C23.736 4.48256 23.7807 4.62289 23.7888 4.76764C23.7969 4.91239 23.7681 5.05682 23.7052 5.18742L21.8966 8.93485C22.4109 13.3029 20.7018 17.4789 17.2646 19.9474C13.7503 22.4726 8.57833 23.1086 2.44462 20.5954C2.11185 20.4693 1.82656 20.2428 1.62834 19.9473C1.43012 19.6517 1.32879 19.3018 1.3384 18.9461C1.348 18.5903 1.46808 18.2464 1.68197 17.962C1.89586 17.6776 2.19295 17.4668 2.53205 17.3589C3.47311 17.104 4.3751 16.7222 5.21319 16.224C3.33586 15.0961 1.86605 13.4001 1.01639 11.3815C0.166737 9.36293 -0.0187019 7.12638 0.486904 4.99542C0.525353 4.67722 0.652237 4.37618 0.853153 4.12645C1.05407 3.87673 1.32097 3.68833 1.62356 3.58265C1.92615 3.47697 2.2523 3.45823 2.56501 3.52857C2.87771 3.5989 3.16443 3.75549 3.39262 3.98057C5.8149 6.36171 7.93205 7.34571 9.39948 7.74857C9.96862 7.90457 10.4452 7.97485 10.8086 8.00399C10.6955 6.49542 10.9526 5.23714 11.5218 4.24285C12.2143 3.03085 13.3166 2.30571 14.5286 1.99371Z"/>
</svg>
