<svg width="24" height="24" viewBox="0 0 24 24" fill="white" xmlns="http://www.w3.org/2000/svg">
<g clip-path="url(#clip0_107_19)">
<path fill-rule="evenodd" clip-rule="evenodd" d="M4.9937 4.04914C5.43942 3.58971 5.68456 2.976 5.67942 2.33829C5.6564 1.71929 5.39778 1.13247 4.95644 0.697826C4.51511 0.263185 3.92441 0.0135605 3.30513 0C2.68398 0.0133046 2.09112 0.262291 1.64674 0.696489C1.20236 1.13069 0.93969 1.71761 0.911987 2.33829C0.920797 2.97539 1.17409 3.58476 1.61951 4.04038C2.06492 4.496 2.66839 4.76304 3.30513 4.78629C3.94283 4.7713 4.54916 4.5066 4.9937 4.04914ZM2.86284 7.93714C1.85656 7.91486 1.17084 7.89943 1.17084 9.13029V22.8309C1.17084 24.036 1.8257 24.012 2.76856 23.976C2.93999 23.9691 3.11999 23.9623 3.30684 23.9623C3.49542 23.9623 3.67542 23.9691 3.84513 23.976C4.78456 24.0103 5.4257 24.036 5.4257 22.8309V9.132C5.4257 7.90114 4.7537 7.91486 3.75256 7.93886C3.45603 7.94566 3.15938 7.94394 2.86284 7.93714ZM9.86399 7.96286C9.40799 8.05371 9.11484 8.34514 9.11484 9.13029V22.8309C9.11484 24.036 9.74399 24.012 10.6886 23.976C10.86 23.9691 11.0434 23.9623 11.2337 23.9623C11.4257 23.9623 11.6074 23.9691 11.7806 23.976C12.7303 24.0103 13.3714 24.036 13.3714 22.8309V15.5246C13.3349 15.1511 13.3781 14.7741 13.4982 14.4186C13.6184 14.0631 13.8127 13.7372 14.0683 13.4625C14.3239 13.1877 14.635 12.9704 14.9809 12.825C15.3268 12.6796 15.6997 12.6093 16.0748 12.6189C16.4518 12.5963 16.8292 12.6552 17.1813 12.7915C17.5335 12.9278 17.8522 13.1384 18.1157 13.4089C18.3792 13.6794 18.5813 14.0035 18.7084 14.3591C18.8354 14.7147 18.8844 15.0935 18.852 15.4697V22.7743C18.852 23.9811 19.4794 23.9571 20.424 23.9211C20.5954 23.9143 20.7788 23.9074 20.9691 23.9074C21.1611 23.9074 21.3428 23.9143 21.516 23.9211C22.4606 23.9554 23.088 23.9811 23.088 22.776V13.4229C23.1231 12.6549 22.9962 11.8882 22.7155 11.1726C22.4349 10.457 22.0067 9.80843 21.4588 9.26917C20.911 8.72991 20.2558 8.31201 19.5358 8.04264C18.8159 7.77327 18.0472 7.65848 17.28 7.70571C16.4985 7.63462 15.7119 7.76531 14.9954 8.08528C14.279 8.40525 13.6566 8.90378 13.188 9.53314C13.2068 8.85771 12.9874 7.96286 12.4406 7.96286C12.2828 7.96286 12.0411 7.95429 11.7668 7.94571C11.0811 7.92514 10.1897 7.89771 9.86399 7.96286Z" />
</g>
<defs>
<clipPath id="clip0_107_19">
<rect width="24" height="24" fill="white"/>
</clipPath>
</defs>
</svg>
